<?xml version="1.0" standalone="no"?><!DOCTYPE svg PUBLIC "-//W3C//DTD SVG 1.1//EN" "http://www.w3.org/Graphics/SVG/1.1/DTD/svg11.dtd"><svg t="1510123570195" class="icon" style="" viewBox="0 0 1024 1024" version="1.1" xmlns="http://www.w3.org/2000/svg" p-id="1838" xmlns:xlink="http://www.w3.org/1999/xlink" width="200" height="200"><defs><style type="text/css"></style></defs><path d="M598.051353 959.799816c-0.277316-0.487094-0.415462-1.072425-0.792039-1.414209-7.649214-6.682189-10.82044-15.19405-10.785647-25.251104 0.104377-18.636452 0.035816-37.307697 0.035816-55.945173 0-127.767965 0.067538-255.536954-0.105401-383.304919-0.029676-12.127202 3.962242-21.564132 12.474103-30.040177 84.156702-83.951017 168.20698-168.074973 252.262374-252.128321 7.062859-7.094582 12.814864-14.94641 15.639189-24.835641 8.509814-29.352515-13.296841-59.873646-43.88858-61.216223-1.614777-0.068562-3.269463-0.068562-4.888334-0.068562L205.96135 125.595486c-22.843264 0-40.99467 12.160971-47.919383 32.586163-5.443989 16.090467-2.892887 31.245631 7.370875 44.853557 3.413749 4.477988 7.204076 8.644891 11.162224 12.608156 80.126922 80.230276 160.285566 160.459528 240.585427 240.551658 8.40646 8.372691 12.266371 17.774829 12.232602 29.659507-0.208754 87.050612-0.173962 174.137039-0.069585 261.155928 0 13.294794-4.790096 23.662933-16.709567 30.004361-19.015076 10.126638-42.748616-2.963495-44.50768-24.358781-0.172939-2.339278-0.172939-4.752234-0.172939-7.094582 0-82.191954-0.029676-164.351162 0.068562-246.51037 0-3.581572-1.029446-6.02932-3.546779-8.510838-79.091336-78.991052-158.254304-157.943218-237.108233-237.176794-21.494547-21.560038-33.414017-47.915289-33.518395-78.749552-0.172939-51.635007 34.485419-94.557586 81.676208-106.545618 9.921977-2.51631 20.465101-3.720741 30.695093-3.755534 203.900923-0.172939 407.727145-0.172939 611.593276-0.104377 42.681078 0 75.376735 18.428721 97.627505 54.910611 22.11467 36.307927 19.050891 86.842881-7.097652 120.362298-4.544503 5.825682-9.437953 11.43954-14.674211 16.639982-80.675414 80.779791-161.390737 161.491021-242.170528 242.101967-2.615571 2.615571-3.685949 5.131881-3.685949 8.887414 0.069585 139.340535-0.033769 278.651394 0.208754 417.957137 0.033769 13.262048-1.379417 25.319665-11.712763 34.762735C623.509165 959.799816 610.797655 959.799816 598.051353 959.799816L598.051353 959.799816zM598.051353 959.799816" p-id="1839"></path></svg>