<?xml version="1.0" standalone="no"?><!DOCTYPE svg PUBLIC "-//W3C//DTD SVG 1.1//EN" "http://www.w3.org/Graphics/SVG/1.1/DTD/svg11.dtd"><svg class="icon" width="200px" height="200.00px" viewBox="0 0 1024 1024" version="1.1" xmlns="http://www.w3.org/2000/svg"><path d="M66.11456 557.74208a64.50176 64.50176 0 0 1-48.68608-22.1696A64.2048 64.2048 0 0 1 1.67424 489.6256a64.256 64.256 0 0 1 20.3264-43.51488L322.7648 148.49024a80.70656 80.70656 0 0 1 57.11872-23.4752c18.19136 0 36.0704 6.21568 50.34496 17.50528l219.04896 173.2352 180.93056-207.2576L727.69024 0.03584 1022.42816 0l-0.1024 297.23136-98.5856-98.67776-218.1632 241.792a78.60736 78.60736 0 0 1-58.27072 25.90208c-18.0736 0-35.73248-6.31808-49.72032-17.78688L377.53344 268.04224 110.53568 540.0064l-0.38912 0.35328a64.25088 64.25088 0 0 1-44.032 17.3824zM24.80128 623.75424h122.27072V1024H24.80128v-400.24576zM301.01504 426.27584h122.2656v597.71904h-122.2656V426.27584zM600.51456 560.11776h122.27072v463.87712h-122.27072v-463.87712zM900.01408 353.8688h122.27072V1024h-122.27072V353.8688z" /></svg>
