<?xml version="1.0" standalone="no"?><!DOCTYPE svg PUBLIC "-//W3C//DTD SVG 1.1//EN" "http://www.w3.org/Graphics/SVG/1.1/DTD/svg11.dtd"><svg class="icon" width="200px" height="200.00px" viewBox="0 0 1024 1024" version="1.1" xmlns="http://www.w3.org/2000/svg"><path d="M322.755443 410.079859c-12.296398-0.299912-22.093527-10.296983-22.193498-22.59338 0-12.296398 10.197013-22.593381 22.193498-22.593381h53.484331l-49.785415-105.569072c-2.399297-5.298448-2.899151-11.19672-1.499561-16.89505 1.799473-5.798301 6.098213-10.596895 11.796544-12.896222 3.099092-1.299619 6.298155-2.099385 9.597189-2.199356 8.39754 0 15.995314 4.798594 20.394025 12.896222l59.082691 125.363273h33.990041l58.98272-125.063361c3.798887-7.797716 11.796544-12.69628 20.493996-12.496339 3.998828 0 7.297862 0.899736 9.997071 2.69921 5.098506 2.499268 9.097335 6.99795 10.896808 12.496339 1.999414 5.698331 1.699502 11.896515-0.899736 17.394903l-49.785415 105.669043h59.782486c12.196427 0 22.193498 10.097042 22.193498 22.593381-0.099971 12.296398-9.8971 22.293469-22.193498 22.59338H468.212828v57.383189h101.07039c12.196427 0 22.193498 10.097042 22.193498 22.593381-0.099971 12.296398-9.8971 22.293469-22.193498 22.593381H468.212828v72.878648c0.399883 3.998828-1.499561 8.897393-5.198477 13.096164-4.298741 4.898565-10.496925 7.697745-16.995021 7.697744-12.296398-0.299912-22.093527-10.296983-22.193498-22.59338v-72.878649H322.755443c-12.296398-0.299912-22.093527-10.296983-22.193498-22.593381 0-12.196427 10.197013-22.49341 22.193498-22.49341h101.070389v-56.783364H322.755443z m649.609684 115.366202H684.349507L396.233916 812.661915c-2.999121 3.199063-4.598653 7.397833-4.698624 11.796544 0.099971 4.498682 1.899444 8.797423 4.998536 12.096457l6.598067 6.798008c6.298155 6.198184 16.495167 6.198184 22.793322 0l2.299327-2.299326 182.546519-141.658499c4.898565-3.299033 8.697452-4.598653 13.096163-4.598653 6.99795 0 13.196134 3.299033 17.694816 9.297277 3.299033 4.998536 4.698623 10.996778 3.898858 16.395196-0.599824 5.998243-3.798887 11.496632-8.697452 14.995607L455.016694 876.44323c-11.096749 10.796837-25.892414 16.79508-41.287904 16.995021-16.095285 0-31.490774-6.498096-42.587523-18.19467l-6.798008-6.897979c-7.997657-7.997657-13.496046-18.094699-15.895343-29.091477l-0.999707-3.199063H185.095773c-32.890364 0-59.582544 27.192034-59.582544 60.582251V917.031338c0 33.390218 26.69218 60.582251 59.582544 60.582252h326.104461l217.536269-132.161281c3.498975-2.099385 7.397833-3.199063 11.496632-3.099092h230.33252c12.296398 0 22.193498 10.097042 22.193498 22.593381 0 12.496339-9.8971 22.593381-22.193498 22.593381H746.431319l-217.536269 132.16128c-5.298448 2.299326-8.797423 3.199063-11.496632 3.199063H185.395685v-2.399297c-55.783657-1.39959-100.770477-48.085912-100.770478-105.169189v-20.493996c0-57.983013 46.38641-105.169189 103.369716-105.169188H359.044811l1.299619-1.799473c1.699502-3.199063 4.098799-5.998243 6.897979-8.297569l291.414625-290.614859c0.799766-0.799766 1.799473-1.799473 3.698916-2.699209l1.099678-0.599825c0.499854-0.299912 0.999707-0.499854 1.499561-0.699795 5.098506-3.898858 9.79713-5.798301 14.195841-5.798301H828.907156l0.199942-3.598945c1.999414-14.695695 2.79918-28.691594 2.799179-45.886557 0-212.637704-170.150151-385.687006-379.188909-385.687006-209.138729 0-379.188909 173.049302-379.18891 385.687006 0 76.377624 32.890364 195.842624 86.174754 255.72508 7.997657 8.197598 7.497803 22.793322-1.39959 31.690716-4.798594 4.19877-10.097042 6.298155-14.795665 6.298155-6.198184 0.099971-12.296398-2.399297-16.595138-6.897979C63.331446 645.310944 29.141462 516.248755 29.141462 430.773797 29.341404 193.343356 219.285756 0 452.917309 0 686.448892 0 876.493215 193.243386 876.493215 430.773797c0 9.997071-0.599824 19.794201-1.499561 32.190569l-1.299619 17.194962h98.671092c12.196427 0 22.193498 10.097042 22.193498 22.593381-0.099971 12.396368-9.8971 22.49341-22.193498 22.693352z m0 0" /></svg>
