<?xml version="1.0" standalone="no"?><!DOCTYPE svg PUBLIC "-//W3C//DTD SVG 1.1//EN" "http://www.w3.org/Graphics/SVG/1.1/DTD/svg11.dtd"><svg class="icon" width="200px" height="200.00px" viewBox="0 0 1024 1024" version="1.1" xmlns="http://www.w3.org/2000/svg"><path d="M770.502048 365.27529 259.001561 365.27529 259.001561 267.962323C259.001561 145.457956 362.516471 49.487676 494.931162 48.720427 624.340785 49.42374 721.781628 143.348015 721.781628 267.962323L721.781628 316.682743C721.781628 330.109632 732.651012 341.042955 746.141837 341.042955 759.632663 341.042955 770.502048 330.173568 770.502048 316.682743L770.502048 267.962323C770.502048 116.174551 652.920875 1.534507 496.5296 0.063942L493.396659 0.063942C334.447883 1.534507 210.281139 118.668117 210.281139 267.962323L210.281139 367.832791C127.865623 379.853054 64.119875 450.248309 64.119875 535.860702L64.119875 852.479505C64.119875 946.595594 140.589198 1023.00098 234.64135 1023.00098L770.502048 1023.00098C864.618138 1023.00098 941.023524 946.595594 941.023524 852.479505L941.023524 535.860702C941.023524 441.80855 864.490263 365.27529 770.502048 365.27529L770.502048 365.27529 770.502048 365.27529ZM892.303102 852.415567C892.303102 919.613944 837.700425 974.216621 770.502048 974.216621L234.64135 974.216621C167.442973 974.216621 112.904234 919.613944 112.904234 852.415567L112.904234 535.796766C112.904234 468.598389 167.506911 414.059648 234.64135 414.059648L770.502048 414.059648C837.764363 414.059648 892.303102 468.662325 892.303102 535.796766L892.303102 852.415567 892.303102 852.415567Z" /></svg>
